<svg xmlns="http://www.w3.org/2000/svg" viewBox="0 0 200 40" fill="none">
  <defs>
    <linearGradient id="logo-grad" x1="0" y1="0" x2="40" y2="40" gradientUnits="userSpaceOnUse">
      <stop offset="0%" stop-color="#4F46E5"/>
      <stop offset="100%" stop-color="#06B6D4"/>
    </linearGradient>
  </defs>
  <!-- Icon: mini anvil + spark -->
  <rect x="2" y="2" width="36" height="36" rx="8" fill="url(#logo-grad)" opacity="0.15"/>
  <rect x="2" y="2" width="36" height="36" rx="8" stroke="url(#logo-grad)" stroke-width="1.5" fill="none"/>
  <path d="M10 28 L30 28 L31 30 L9 30 Z" fill="url(#logo-grad)" opacity="0.9"/>
  <path d="M12 28 L28 28 L28 25 L12 25 Z" fill="url(#logo-grad)"/>
  <path d="M11 25 L29 25 L30 22 L27 19 L13 19 L10 22 Z" fill="url(#logo-grad)" opacity="0.8"/>
  <circle cx="20" cy="13" r="3" fill="url(#logo-grad)"/>
  <circle cx="14" cy="17" r="1.8" fill="#06B6D4" opacity="0.7"/>
  <circle cx="26" cy="17" r="1.8" fill="#4F46E5" opacity="0.7"/>
  <line x1="20" y1="13" x2="14" y2="17" stroke="#06B6D4" stroke-width="1" opacity="0.5"/>
  <line x1="20" y1="13" x2="26" y2="17" stroke="#4F46E5" stroke-width="1" opacity="0.5"/>
  <!-- Text -->
  <text x="46" y="26" font-family="system-ui, sans-serif" font-size="18" font-weight="700" fill="#4F46E5">Skill</text>
  <text x="88" y="26" font-family="system-ui, sans-serif" font-size="18" font-weight="700" fill="#06B6D4">Forge</text>
  <text x="138" y="26" font-family="system-ui, sans-serif" font-size="12" font-weight="400" fill="#6B7280">.ai</text>
</svg>
